<svg xml:space="preserve" style="max-height: 500px" viewBox="8.803716381418093 8.798399999999999 83.39075794621027 81.38520000000001" y="0px" x="0px" version="1.1" xmlns:xlink="http://www.w3.org/1999/xlink" xmlns="http://www.w3.org/2000/svg" width="83.39075794621027" height="81.38520000000001"><g><path d="M52.36,10.33c-1.11-0.92-2.73-0.92-3.84,0L11.98,40.82c-0.68,0.57-1.08,1.41-1.08,2.3v10.95c0,0.88,0.39,1.72,1.06,2.29   L48.5,87.41c0.56,0.48,1.25,0.71,1.94,0.71s1.38-0.24,1.94-0.71l36.75-31.05c0.67-0.57,1.06-1.41,1.06-2.29V43.13   c0-0.89-0.4-1.74-1.08-2.31L52.36,10.33z M84.19,50.27l-15.45-3.93L58.42,23.15L84.2,44.54L84.19,50.27L84.19,50.27z M50.45,53.79   L38.19,47.5L50.45,20l12.26,27.5L50.45,53.79z M33.94,52.07L47.45,59v19.64L20.27,55.55L33.94,52.07z M53.45,59l13.51-6.93   l13.8,3.52L53.45,78.66V59z M42.45,23.22l-10.3,23.11L16.9,50.22v-5.68L42.45,23.22z"/></g><text font-family="'Helvetica Neue', Helvetica, Arial-Unicode, Arial, Sans-serif" font-weight="bold" font-size="5px" fill="#000000" y="112.76" x="0">Created by Fritz Duggan</text><text font-family="'Helvetica Neue', Helvetica, Arial-Unicode, Arial, Sans-serif" font-weight="bold" font-size="5px" fill="#000000" y="117.76" x="0">from the Noun Project</text></svg>