<svg xml:space="preserve" style="max-height: 500px" viewBox="8.803716381418093 8.798399999999999 83.39075794621027 81.38520000000001" y="0px" x="0px" version="1.1" xmlns:xlink="http://www.w3.org/1999/xlink" xmlns="http://www.w3.org/2000/svg" width="83.39075794621027" height="81.38520000000001"><g><path d="M85.5,36.55l-12.42-17.1c-0.37-0.51-0.9-0.89-1.5-1.09l-20.1-6.53c-0.6-0.2-1.25-0.2-1.85,0l-20.1,6.53   c-0.6,0.2-1.13,0.58-1.5,1.09L15.6,36.55c-0.37,0.51-0.57,1.13-0.57,1.76v21.13c0,0.63,0.2,1.25,0.57,1.76l12.42,17.1   c0.37,0.51,0.9,0.89,1.5,1.09l20.1,6.53c0.3,0.1,0.61,0.15,0.93,0.15s0.63-0.05,0.93-0.15l20.1-6.53c0.6-0.2,1.13-0.58,1.5-1.09   L85.5,61.2c0.37-0.51,0.57-1.13,0.57-1.76V38.31C86.07,37.68,85.87,37.06,85.5,36.55z M78.44,37.04l-9.34,4.01l-15.55-11.3V18.82   l15.24,4.95L78.44,37.04z M59.6,62.84H41.5l-5.59-17.21l14.64-10.64l14.64,10.64L59.6,62.84z M32.3,23.77l15.24-4.95v10.94   L32,41.05l-9.34-4.01L32.3,23.77z M21.03,58.47v-15.6l8.92,3.83l6.01,18.49l-5.35,6.46L21.03,58.47z M50.55,79.92l-14.97-4.86   l5.15-6.22h19.63l5.15,6.22L50.55,79.92z M70.49,71.65l-5.35-6.46l6.01-18.49l8.92-3.83v15.6L70.49,71.65z"/></g><text font-family="'Helvetica Neue', Helvetica, Arial-Unicode, Arial, Sans-serif" font-weight="bold" font-size="5px" fill="#000000" y="112.76" x="0">Created by Fritz Duggan</text><text font-family="'Helvetica Neue', Helvetica, Arial-Unicode, Arial, Sans-serif" font-weight="bold" font-size="5px" fill="#000000" y="117.76" x="0">from the Noun Project</text></svg>