<svg xml:space="preserve" style="max-height: 500px" viewBox="8.803716381418093 8.798399999999999 83.39075794621027 81.38520000000001" y="0px" x="0px" version="1.1" xmlns:xlink="http://www.w3.org/1999/xlink" xmlns="http://www.w3.org/2000/svg" width="83.39075794621027" height="81.38520000000001"><g><path d="M82.19,31.23c-0.02-0.15-0.03-0.3-0.07-0.44c-0.04-0.13-0.1-0.24-0.15-0.37c-0.04-0.11-0.07-0.22-0.13-0.32   c-0.01-0.01-0.02-0.02-0.02-0.03c-0.07-0.11-0.16-0.21-0.24-0.32c-0.08-0.1-0.15-0.21-0.24-0.3c-0.08-0.08-0.18-0.14-0.27-0.21   c-0.11-0.09-0.22-0.19-0.35-0.26c-0.02-0.01-0.03-0.02-0.04-0.03l-29.32-16.2c-0.94-0.52-2.08-0.5-3,0.06l-28.68,17.3   c-0.02,0.01-0.03,0.03-0.05,0.04c-0.12,0.07-0.22,0.17-0.33,0.26c-0.09,0.08-0.19,0.15-0.28,0.24c-0.08,0.09-0.15,0.2-0.22,0.29   c-0.08,0.11-0.17,0.22-0.23,0.34c-0.01,0.02-0.02,0.03-0.03,0.04c-0.05,0.1-0.07,0.2-0.1,0.3c-0.05,0.13-0.11,0.25-0.14,0.39   c-0.03,0.14-0.04,0.28-0.05,0.42c-0.01,0.1-0.04,0.2-0.04,0.31l0.63,33.49c0.02,1.07,0.61,2.05,1.55,2.57L49.73,85   c0.45,0.25,0.95,0.37,1.45,0.37c0.54,0,1.07-0.14,1.55-0.43l28.69-17.29c0.92-0.55,1.47-1.55,1.45-2.63l-0.63-33.49   C82.24,31.43,82.2,31.33,82.19,31.23z M60.26,58.89l-8.88,15.82l-9.47-15.48L60.26,58.89z M41.33,52.69l8.88-15.82l9.47,15.48   L41.33,52.69z M35.97,49.98l-9.44-14.61l18.26-1.11L35.97,49.98z M65.28,50.01l-9.76-15.95l18.62,0.42L65.28,50.01z M53.06,28   l-0.09-7.49l14.13,7.81L53.06,28z M47.06,28.11l-13.83,0.84l13.75-8.29L47.06,28.11z M32.09,55.03l-7.34,5.34l-0.33-17.2   L32.09,55.03z M35.38,60.05l9.39,15.35l-17.34-9.58L35.38,60.05z M66.49,60.04L74.2,65l-15.85,9.55L66.49,60.04z M69.45,54.8   l6.99-12.26l0.32,16.97L69.45,54.8z"/></g><text font-family="'Helvetica Neue', Helvetica, Arial-Unicode, Arial, Sans-serif" font-weight="bold" font-size="5px" fill="#000000" y="112.76" x="0">Created by Fritz Duggan</text><text font-family="'Helvetica Neue', Helvetica, Arial-Unicode, Arial, Sans-serif" font-weight="bold" font-size="5px" fill="#000000" y="117.76" x="0">from the Noun Project</text></svg>