<svg xml:space="preserve" style="max-height: 500px" viewBox="8.803716381418093 8.798399999999999 83.39075794621027 81.38520000000001" y="0px" x="0px" version="1.1" xmlns:xlink="http://www.w3.org/1999/xlink" xmlns="http://www.w3.org/2000/svg" width="83.39075794621027" height="81.38520000000001"><g><path d="M52.92,10.81c-0.57-0.74-1.45-1.17-2.38-1.17s-1.81,0.43-2.38,1.17L10.38,59.77c-0.52,0.67-0.73,1.53-0.58,2.37   c0.15,0.83,0.65,1.57,1.37,2.01l37.79,23.52c0.49,0.3,1.04,0.45,1.59,0.45s1.1-0.15,1.59-0.45l37.79-23.52   c0.72-0.45,1.22-1.18,1.37-2.01c0.15-0.83-0.06-1.69-0.58-2.37L52.92,10.81z M47.55,21.44v58.29L17.16,60.81L47.55,21.44z    M53.55,79.72V21.44l30.39,39.37L53.55,79.72z"/></g><text font-family="'Helvetica Neue', Helvetica, Arial-Unicode, Arial, Sans-serif" font-weight="bold" font-size="5px" fill="#000000" y="112.76" x="0">Created by Fritz Duggan</text><text font-family="'Helvetica Neue', Helvetica, Arial-Unicode, Arial, Sans-serif" font-weight="bold" font-size="5px" fill="#000000" y="117.76" x="0">from the Noun Project</text></svg>