<svg xml:space="preserve" style="max-height: 500px" viewBox="8.803716381418093 8.798399999999999 83.39075794621027 81.38520000000001" y="0px" x="0px" version="1.1" xmlns:xlink="http://www.w3.org/1999/xlink" xmlns="http://www.w3.org/2000/svg" width="83.39075794621027" height="81.38520000000001"><g><path d="M83.68,27.08L51.72,13.55c-0.75-0.32-1.59-0.32-2.34,0L17.42,27.08c-1.1,0.47-1.82,1.55-1.83,2.74c0,0.01,0,0.01,0,0.02   l0,0v37.61c0,1.19,0.71,2.27,1.8,2.75l31.96,14c0.38,0.17,0.79,0.25,1.2,0.25s0.82-0.08,1.2-0.25l31.96-14   c1.09-0.48,1.8-1.56,1.8-2.75V29.84l0,0c0-0.01,0-0.01,0-0.02C85.5,28.63,84.79,27.55,83.68,27.08z M50.55,19.57l24.38,10.32   L50.55,40.57L26.17,29.89L50.55,19.57z M21.58,34.43L47.55,45.8v31.06L21.58,65.49V34.43z M53.55,76.86V45.8l25.96-11.37v31.06   L53.55,76.86z"/></g><text font-family="'Helvetica Neue', Helvetica, Arial-Unicode, Arial, Sans-serif" font-weight="bold" font-size="5px" fill="#000000" y="112.76" x="0">Created by Fritz Duggan</text><text font-family="'Helvetica Neue', Helvetica, Arial-Unicode, Arial, Sans-serif" font-weight="bold" font-size="5px" fill="#000000" y="117.76" x="0">from the Noun Project</text></svg>