<svg xml:space="preserve" style="max-height: 500px" viewBox="8.803716381418093 8.798399999999999 83.39075794621027 81.38520000000001" y="0px" x="0px" version="1.1" xmlns:xlink="http://www.w3.org/1999/xlink" xmlns="http://www.w3.org/2000/svg" width="83.39075794621027" height="81.38520000000001"><g><path d="M80.8,30.5L52.75,13.55c-0.92-0.55-2.06-0.58-3-0.06L21.05,29.3c-0.94,0.52-1.53,1.5-1.55,2.57l-0.65,32.77   c-0.02,1.07,0.53,2.07,1.45,2.63l28.05,16.95c0.48,0.29,1.01,0.43,1.55,0.43c0.5,0,1-0.12,1.45-0.37l28.7-15.82   c0.94-0.52,1.53-1.5,1.55-2.57l0.65-32.77C82.27,32.05,81.72,31.05,80.8,30.5z M75.83,54.3L58.67,24.13l17.54,10.6L75.83,54.3z    M73.42,62.21l-45.21-0.45l22.57-39.37L73.42,62.21z M42.87,24.13l-17.83,31.1l0.43-21.51L42.87,24.13z M49.96,78.18L32.79,67.81   l35.36,0.35L49.96,78.18z"/></g><text font-family="'Helvetica Neue', Helvetica, Arial-Unicode, Arial, Sans-serif" font-weight="bold" font-size="5px" fill="#000000" y="112.76" x="0">Created by Fritz Duggan</text><text font-family="'Helvetica Neue', Helvetica, Arial-Unicode, Arial, Sans-serif" font-weight="bold" font-size="5px" fill="#000000" y="117.76" x="0">from the Noun Project</text></svg>